<?xml version="1.0" standalone="no"?>
<!DOCTYPE svg PUBLIC "-//W3C//DTD SVG 20010904//EN"
 "http://www.w3.org/TR/2001/REC-SVG-20010904/DTD/svg10.dtd">
<svg version="1.0" xmlns="http://www.w3.org/2000/svg"
 width="512.000000pt" height="512.000000pt" viewBox="0 0 512.000000 512.000000"
 preserveAspectRatio="xMidYMid meet">
<metadata>
Created by potrace 1.16, written by Peter Selinger 2001-2019
</metadata>
<g transform="translate(0.000000,512.000000) scale(0.100000,-0.100000)"
fill="#000000" stroke="none">
<path d="M1855 5107 c-78 -31 -154 -98 -191 -170 l-15 -27 -32 24 c-49 38
-117 51 -182 37 -66 -15 -144 -80 -180 -151 l-24 -48 -43 15 c-113 39 -246
-29 -302 -155 -16 -36 -22 -41 -40 -35 -12 5 -55 8 -98 8 -69 0 -81 -3 -119
-30 -75 -53 -119 -125 -143 -235 -5 -23 -10 -25 -60 -26 -172 -4 -287 -181
-265 -405 16 -158 124 -278 249 -279 72 0 116 17 173 70 57 52 91 115 103 189
l7 41 54 0 c95 0 170 49 225 148 28 49 33 53 57 45 14 -4 53 -8 87 -8 47 1 70
7 106 28 54 32 99 81 123 135 l18 40 33 -14 c69 -29 158 -13 227 40 l44 34 41
-48 c121 -141 324 -141 455 -1 85 91 126 210 127 366 0 138 -36 240 -117 326
-66 70 -130 99 -217 98 -39 0 -84 -6 -101 -12z m153 -161 c123 -64 162 -301
76 -452 -26 -46 -74 -91 -113 -106 -62 -23 -134 19 -178 106 -35 66 -44 204
-19 288 39 135 146 210 234 164z m-474 -157 c76 -66 75 -229 -1 -305 -42 -43
-76 -44 -112 -5 -73 78 -65 240 15 311 43 38 55 38 98 -1z m-372 -169 c82 -64
80 -255 -4 -325 -39 -33 -63 -32 -103 8 -75 75 -63 250 21 316 33 26 54 26 86
1z m-354 -193 c71 -75 69 -232 -3 -304 -61 -61 -129 -31 -156 70 -40 149 77
322 159 234z m-342 -286 c61 -37 87 -156 55 -253 -14 -44 -72 -98 -104 -98
-27 0 -71 43 -87 85 -34 87 0 227 64 266 38 23 34 23 72 0z"/>
<path d="M3043 5095 c-134 -67 -213 -217 -213 -400 1 -156 42 -275 127 -366
131 -140 334 -140 455 1 l41 48 44 -34 c69 -53 158 -69 227 -40 l33 14 18 -40
c24 -54 69 -103 123 -135 36 -21 59 -27 106 -28 34 0 73 4 87 8 24 8 29 4 57
-45 55 -99 130 -148 225 -148 l54 0 7 -41 c12 -74 46 -137 103 -189 108 -98
243 -95 337 10 50 56 76 117 85 199 22 224 -93 401 -265 405 -50 1 -55 3 -60
26 -24 110 -68 182 -143 235 -38 27 -50 30 -119 30 -43 0 -86 -3 -97 -8 -18
-6 -24 0 -42 37 -63 128 -188 192 -301 153 l-43 -15 -20 42 c-77 153 -248 209
-366 120 l-32 -24 -15 28 c-26 50 -102 127 -152 152 -37 19 -68 25 -129 28
-70 3 -86 0 -132 -23z m193 -154 c44 -27 81 -79 105 -147 30 -86 24 -228 -14
-300 -44 -87 -116 -129 -178 -106 -193 74 -217 459 -34 560 31 17 87 14 121
-7z m448 -151 c80 -71 88 -233 15 -311 -36 -39 -70 -38 -112 5 -76 76 -77 239
-1 305 43 39 55 39 98 1z m360 -171 c84 -66 96 -241 21 -316 -38 -38 -62 -41
-99 -12 -83 66 -95 236 -21 314 37 40 61 44 99 14z m364 -185 c54 -37 85 -159
63 -241 -27 -101 -95 -131 -156 -70 -115 115 -31 398 93 311z m318 -293 c45
-28 75 -97 76 -173 0 -73 -13 -112 -50 -150 -33 -36 -63 -35 -106 2 -72 64
-84 209 -24 293 17 24 46 44 68 46 3 1 19 -8 36 -18z"/>
<path d="M1508 4054 c-417 -90 -868 -420 -1057 -774 -78 -147 -121 -315 -121
-474 0 -139 43 -384 94 -546 13 -41 47 -149 76 -240 109 -345 132 -522 134
-1040 2 -437 7 -471 79 -620 80 -166 250 -299 438 -344 83 -20 244 -20 329 -1
102 24 220 88 301 163 148 137 217 283 235 499 6 78 6 82 -19 107 -33 33 -79
34 -111 3 -18 -18 -24 -39 -30 -97 -13 -149 -60 -260 -150 -357 -144 -155
-360 -212 -553 -148 -135 46 -234 129 -294 247 -60 118 -62 137 -64 558 -3
537 -28 724 -147 1095 -168 527 -193 737 -116 975 96 299 438 627 803 769 305
120 486 107 644 -44 131 -125 198 -353 157 -536 -22 -102 -60 -171 -223 -409
-224 -327 -285 -435 -344 -607 -49 -147 -63 -234 -63 -403 0 -253 38 -385 176
-613 44 -72 91 -153 104 -179 13 -26 33 -52 43 -58 33 -17 76 -12 99 13 42 45
29 83 -103 302 -86 142 -120 219 -140 317 -36 168 -29 344 21 515 43 151 118
289 317 584 102 152 197 299 210 325 87 171 98 389 32 584 -41 121 -83 189
-170 275 -88 88 -168 134 -278 160 -78 18 -221 18 -309 -1z"/>
<path d="M3298 4055 c-106 -26 -187 -73 -273 -160 -220 -218 -278 -582 -138
-859 13 -26 107 -171 209 -322 101 -150 204 -314 229 -364 124 -246 161 -497
110 -739 -20 -97 -54 -174 -140 -316 -99 -164 -130 -229 -161 -332 -23 -76
-27 -107 -27 -223 -1 -162 15 -237 75 -360 34 -69 59 -102 133 -175 144 -144
288 -205 489 -205 195 0 349 62 481 195 134 133 195 289 198 505 2 96 1 103
-22 121 -30 24 -72 24 -103 -1 -23 -17 -26 -29 -32 -119 -12 -180 -58 -294
-155 -392 -99 -99 -224 -149 -371 -149 -241 1 -460 178 -521 420 -22 89 -18
251 10 340 28 91 41 116 146 292 142 235 179 364 179 618 0 170 -13 255 -65
408 -50 148 -114 262 -323 575 -236 353 -251 386 -251 552 1 229 112 422 292
508 64 30 74 32 183 32 103 0 126 -4 220 -33 320 -102 632 -329 808 -589 73
-108 119 -221 141 -347 30 -169 -11 -435 -114 -736 -79 -233 -117 -384 -150
-600 -19 -123 -40 -494 -31 -543 13 -71 76 -98 130 -56 24 19 26 25 26 107 0
126 17 353 35 473 26 175 64 325 135 539 179 539 184 850 19 1160 -100 188
-295 393 -512 537 -162 108 -382 203 -551 237 -91 19 -231 19 -308 1z"/>
</g>
</svg>
